<?xml version="1.0" encoding="utf-8"?>
<!-- Generator: Adobe Illustrator 19.1.0, SVG Export Plug-In . SVG Version: 6.00 Build 0)  -->
<svg version="1.1" id="Layer_1" xmlns="http://www.w3.org/2000/svg" xmlns:xlink="http://www.w3.org/1999/xlink" x="0px" y="0px"
	 viewBox="186 -364 612 792" style="enable-background:new 186 -364 612 792;" xml:space="preserve">
<style type="text/css">
	.st0{fill:#FFFFFF;}
</style>
<g>
	<circle class="st0" cx="492" cy="-17.4" r="28.9"/>
	<path class="st0" d="M760.5,100.5c-3.5,0-7,0.5-10.2,1.5L638.8-91l101.4-58.5c5.3,4.6,12.1,7.3,19.7,7.3
		c16.6,0,30.1-13.5,30.1-30.1c0-16.6-13.5-30.1-30.1-30.1c-16.6,0-30.1,13.5-30.1,30.1c0,2.6,0.3,5.1,1,7.6l-100.9,58.2L518.2-299.8
		c6.9-6.8,11.2-16.2,11.2-26.7c0-20.9-16.6-37.5-37.5-37.5c-20.3,0-37.5,16.6-37.5,37.5c0,3.4,0.5,6.8,1.4,10l-211.6,122
		c-5.4-4.9-12.7-7.9-20.8-7.9c-16.6,0-30.1,13.5-30.1,30.1c0,13.4,8.8,24.7,20.9,28.7v245.3c-16,4.1-28.3,18.7-28.3,36.3
		c0,20.3,16.6,37.5,37.5,37.5c10.7,0,20.2-4.3,27-11.3l209.7,121c-0.5,2.1-0.7,4.3-0.7,6.5c0,16.6,13.5,30.1,30.1,30.1
		s30.1-13.5,30.1-30.1c0-1.4-0.1-2.7-0.3-4.1l214.3-123.5c6.8,7,16.3,11.4,26.9,11.4c20.3,0,37.5-16.6,37.5-37.5
		C798,117.7,781.4,100.5,760.5,100.5z M501.2,128.8V51.3c18.5-2.5,34.9-12.4,45.7-26.6l177.7,102.7c-0.1,0.4-0.3,0.9-0.4,1.3H501.2z
		 M259.8,128.8c-0.1-0.3-0.2-0.7-0.3-1L437.3,25c10.8,14.1,27,23.9,45.5,26.4v77.4H259.8z M243.8-150.1l101.6,58.7L233.8,102
		c-0.4-0.1-0.7-0.2-1.1-0.3v-245.3C236.9-145,240.6-147.2,243.8-150.1z M543-17.4c0,28.3-22.7,51-51,51s-51-22.7-51-51
		c0-28.3,22.7-51,51-51C520.3-68.4,543-45.7,543-17.4z M482.8-290.2V-85c-18.4,2.5-34.5,12.2-45.3,26.2l-67.4-38.9l111.2-192.8
		C481.7-290.5,482.3-290.3,482.8-290.2z M428.5-43.4c-3.4,8.2-5.3,17.1-5.3,26.5c0,9.3,1.9,18.2,5.2,26.3L250.6,112.2
		c-0.3-0.3-0.7-0.7-1-1L361.1-82.3L428.5-43.4z M734.8,110.9c-0.4,0.4-0.8,0.8-1.2,1.1L555.9,9.3c3.3-8.1,5.1-16.9,5-26.1
		c0-9.3-1.8-18.2-5.2-26.2l67.6-39L734.8,110.9z M614.3-97.6l-67.6,39c-10.8-14.2-27-24-45.5-26.4v-205.2c0.5-0.1,1-0.3,1.6-0.4
		L614.3-97.6z M465.8-299.8l-111.4,193l-101.6-58.7c0.5-2.2,0.8-4.4,0.8-6.7c0.1-2.3-0.1-4.5-0.5-6.6l211.6-122
		C465.1-300.6,465.4-300.2,465.8-299.8z M259.8,147.2h222.9v115.1c-5.2,1.2-9.9,3.8-13.7,7.3L259.5,148.7
		C259.6,148.2,259.7,147.7,259.8,147.2z M511.7,271.3c-2.9-3.2-6.5-5.7-10.5-7.4V147.2h223c0.1,0.5,0.3,0.9,0.4,1.4L511.7,271.3z"/>
</g>
</svg>
